<svg xmlns="http://www.w3.org/2000/svg" width="375" viewBox="0 0 375 375" height="375" version="1.0"><defs><clipPath id="a"><path d="M 74 235 L 303 235 L 303 314.875 L 74 314.875 Z M 74 235"/></clipPath></defs><g clip-path="url(#a)"><path fill="#FFF" d="M 301.796875 236.480469 C 283.226562 247.117188 249.425781 258.511719 189.410156 258.511719 C 128.277344 258.511719 93.613281 246.734375 74.65625 235.996094 C 74.484375 238.519531 74.269531 241.03125 74.269531 243.609375 C 74.269531 244.992188 74.269531 270.359375 74.269531 278.558594 C 74.269531 289.25 126.484375 314.84375 189.410156 314.84375 C 252.332031 314.84375 302.15625 287.46875 302.15625 278.558594 C 302.15625 270.230469 302.15625 244.808594 302.15625 243.609375 C 302.15625 241.199219 301.941406 238.847656 301.796875 236.480469 Z M 88.511719 280.113281 C 83.710938 280.113281 79.839844 274.023438 79.839844 266.523438 C 79.839844 259.023438 83.726562 252.933594 88.511719 252.933594 C 93.296875 252.933594 97.1875 259.023438 97.1875 266.523438 C 97.1875 274.039062 93.3125 280.113281 88.511719 280.113281 Z M 131.242188 296.167969 C 124.476562 296.167969 119.007812 289.976562 119.007812 282.351562 C 119.007812 274.722656 124.476562 268.535156 131.242188 268.535156 C 138.007812 268.535156 143.476562 274.722656 143.476562 282.351562 C 143.476562 289.976562 138.007812 296.167969 131.242188 296.167969 Z M 188.210938 300.613281 C 180.351562 300.613281 173.96875 294.226562 173.96875 286.355469 C 173.96875 278.484375 180.351562 272.097656 188.210938 272.097656 C 196.074219 272.097656 202.453125 278.484375 202.453125 286.355469 C 202.453125 294.226562 196.074219 300.613281 188.210938 300.613281 Z M 245.183594 296.167969 C 238.417969 296.167969 232.949219 289.976562 232.949219 282.351562 C 232.949219 274.722656 238.417969 268.535156 245.183594 268.535156 C 251.949219 268.535156 257.417969 274.722656 257.417969 282.351562 C 257.417969 289.976562 251.949219 296.167969 245.183594 296.167969 Z M 287.910156 280.113281 C 283.113281 280.113281 279.238281 274.023438 279.238281 266.523438 C 279.238281 259.023438 283.125 252.933594 287.910156 252.933594 C 292.695312 252.933594 296.585938 259.023438 296.585938 266.523438 C 296.585938 274.039062 292.710938 280.113281 287.910156 280.113281 Z M 287.910156 280.113281"/></g><path fill="#FFF" d="M 256.363281 143.773438 C 296.398438 136.84375 333.304688 137.984375 362.914062 64.46875 C 365.875 57.097656 374.421875 55.429688 372.714844 67.804688 C 359.835938 160.714844 324.757812 172.875 290.121094 186.550781 C 276.746094 188.558594 253.472656 168.953125 256.363281 143.773438 Z M 256.363281 143.773438"/><path fill="#FFF" d="M 120.058594 143.773438 C 80.023438 136.84375 43.121094 137.984375 13.511719 64.46875 C 10.546875 57.085938 2 55.414062 3.726562 67.804688 C 16.601562 160.714844 51.679688 172.875 86.320312 186.550781 C 99.679688 188.558594 122.953125 168.953125 120.058594 143.773438 Z M 120.058594 143.773438"/><path fill="#FFF" d="M 216.699219 215.066406 L 216.699219 106.617188 C 216.699219 106.617188 214.476562 102.339844 188.210938 102.339844 C 161.949219 102.339844 159.726562 106.617188 159.726562 106.617188 L 159.726562 215.066406 L 141.792969 125.679688 C 105.390625 143.417969 84.511719 181.414062 76.664062 218.84375 C 91.261719 228.597656 123.578125 242.597656 189.410156 242.597656 C 254.425781 242.597656 285.761719 228.96875 299.863281 219.300781 C 292.113281 181.558594 270.992188 143.261719 234.273438 125.523438 Z M 216.699219 215.066406"/></svg>